<svg width="46" height="20" viewBox="0 0 46 20" fill="none" xmlns="http://www.w3.org/2000/svg">
<mask id="mask0_23_20254" style="mask-type:alpha" maskUnits="userSpaceOnUse" x="0" y="0" width="20" height="20">
<rect width="20" height="20" fill="#D9D9D9"/>
</mask>
<g mask="url(#mask0_23_20254)">
<path d="M9.99999 13.3333C10.6667 13.3333 11.2604 13.1354 11.7812 12.7395C12.3021 12.3437 12.6805 11.8333 12.9167 11.2083H7.08332C7.31943 11.8333 7.69791 12.3437 8.21874 12.7395C8.73957 13.1354 9.33332 13.3333 9.99999 13.3333ZM7.91666 9.99996C8.26388 9.99996 8.55902 9.87843 8.80207 9.63538C9.04513 9.39232 9.16666 9.09718 9.16666 8.74996C9.16666 8.40274 9.04513 8.1076 8.80207 7.86454C8.55902 7.62149 8.26388 7.49996 7.91666 7.49996C7.56943 7.49996 7.2743 7.62149 7.03124 7.86454C6.78818 8.1076 6.66666 8.40274 6.66666 8.74996C6.66666 9.09718 6.78818 9.39232 7.03124 9.63538C7.2743 9.87843 7.56943 9.99996 7.91666 9.99996ZM12.0833 9.99996C12.4305 9.99996 12.7257 9.87843 12.9687 9.63538C13.2118 9.39232 13.3333 9.09718 13.3333 8.74996C13.3333 8.40274 13.2118 8.1076 12.9687 7.86454C12.7257 7.62149 12.4305 7.49996 12.0833 7.49996C11.7361 7.49996 11.441 7.62149 11.1979 7.86454C10.9549 8.1076 10.8333 8.40274 10.8333 8.74996C10.8333 9.09718 10.9549 9.39232 11.1979 9.63538C11.441 9.87843 11.7361 9.99996 12.0833 9.99996ZM6.35416 5.33329L8.68749 2.31246C8.85416 2.09024 9.05207 1.92704 9.28124 1.82288C9.51041 1.71871 9.74999 1.66663 9.99999 1.66663C10.25 1.66663 10.4896 1.71871 10.7187 1.82288C10.9479 1.92704 11.1458 2.09024 11.3125 2.31246L13.6458 5.33329L17.1875 6.52079C17.5486 6.6319 17.8333 6.83676 18.0417 7.13538C18.25 7.43399 18.3542 7.76385 18.3542 8.12496C18.3542 8.29163 18.3299 8.45829 18.2812 8.62496C18.2326 8.79163 18.1528 8.95135 18.0417 9.10413L15.75 12.3541L15.8333 15.7708C15.8472 16.2569 15.6875 16.6666 15.3542 17C15.0208 17.3333 14.6319 17.5 14.1875 17.5C14.1597 17.5 14.0069 17.4791 13.7292 17.4375L9.99999 16.3958L6.27082 17.4375C6.20138 17.4652 6.12499 17.4826 6.04166 17.4895C5.95832 17.4965 5.88193 17.5 5.81249 17.5C5.36805 17.5 4.97916 17.3333 4.64582 17C4.31249 16.6666 4.15277 16.2569 4.16666 15.7708L4.24999 12.3333L1.97916 9.10413C1.86805 8.95135 1.78818 8.79163 1.73957 8.62496C1.69096 8.45829 1.66666 8.29163 1.66666 8.12496C1.66666 7.77774 1.76735 7.45482 1.96874 7.15621C2.17013 6.8576 2.45138 6.64579 2.81249 6.52079L6.35416 5.33329Z" fill="#A72536"/>
</g>
<path d="M24.7209 13.1108V11.6442L29.0412 4.81818H30.2642V6.90625H29.5185L26.6101 11.5149V11.5945H32.6406V13.1108H24.7209ZM29.5781 15V12.6634L29.598 12.0071V4.81818H31.3381V15H29.5781ZM35.0705 15.1094C34.7689 15.1094 34.5104 15.0033 34.2949 14.7912C34.0795 14.5791 33.9734 14.3205 33.9767 14.0156C33.9734 13.7173 34.0795 13.4621 34.2949 13.25C34.5104 13.0379 34.7689 12.9318 35.0705 12.9318C35.3622 12.9318 35.6157 13.0379 35.8311 13.25C36.0499 13.4621 36.1609 13.7173 36.1642 14.0156C36.1609 14.2178 36.1079 14.4018 36.0051 14.5675C35.9057 14.7332 35.7731 14.8658 35.6074 14.9652C35.445 15.0613 35.266 15.1094 35.0705 15.1094ZM38.0025 15V13.6676L41.5373 10.2024C41.8754 9.86103 42.1571 9.55776 42.3825 9.29261C42.6078 9.02746 42.7769 8.7706 42.8896 8.52202C43.0022 8.27344 43.0586 8.00829 43.0586 7.72656C43.0586 7.40507 42.9857 7.12997 42.8398 6.90128C42.694 6.66927 42.4935 6.49029 42.2383 6.36435C41.9831 6.2384 41.6931 6.17543 41.3683 6.17543C41.0335 6.17543 40.7402 6.24503 40.4883 6.38423C40.2364 6.52012 40.0408 6.71401 39.9016 6.96591C39.7657 7.2178 39.6978 7.51776 39.6978 7.86577H37.9428C37.9428 7.21946 38.0903 6.65767 38.3853 6.1804C38.6803 5.70312 39.0863 5.33357 39.6033 5.07173C40.1237 4.8099 40.7203 4.67898 41.3931 4.67898C42.0759 4.67898 42.6758 4.80658 43.1928 5.06179C43.7099 5.317 44.1109 5.66667 44.396 6.1108C44.6843 6.55492 44.8285 7.06203 44.8285 7.6321C44.8285 8.01326 44.7556 8.38778 44.6097 8.75568C44.4639 9.12358 44.207 9.53125 43.8391 9.97869C43.4746 10.4261 42.9625 10.968 42.3029 11.6044L40.5479 13.3892V13.4588H44.9826V15H38.0025Z" fill="#A72536"/>
</svg>
